<?xml version="1.0" encoding="UTF-8" standalone="no"?>
<svg
   xmlns:dc="http://purl.org/dc/elements/1.1/"
   xmlns:cc="http://creativecommons.org/ns#"
   xmlns:rdf="http://www.w3.org/1999/02/22-rdf-syntax-ns#"
   xmlns:svg="http://www.w3.org/2000/svg"
   xmlns="http://www.w3.org/2000/svg"
   xmlns:sodipodi="http://sodipodi.sourceforge.net/DTD/sodipodi-0.dtd"
   xmlns:inkscape="http://www.inkscape.org/namespaces/inkscape"
   width="50"
   height="50"
   viewBox="0 0 50 50"
   id="svg3397"
   version="1.1"
   inkscape:version="0.91 r13725"
   sodipodi:docname="feelsadOff.svg">
  <metadata
     id="metadata3405">
    <rdf:RDF>
      <cc:Work
         rdf:about="">
        <dc:format>image/svg+xml</dc:format>
        <dc:type
           rdf:resource="http://purl.org/dc/dcmitype/StillImage" />
        <dc:title></dc:title>
      </cc:Work>
    </rdf:RDF>
  </metadata>
  <defs
     id="defs3403" />
  <sodipodi:namedview
     pagecolor="#ffffff"
     bordercolor="#666666"
     borderopacity="1"
     objecttolerance="10"
     gridtolerance="10"
     guidetolerance="10"
     inkscape:pageopacity="0"
     inkscape:pageshadow="2"
     inkscape:window-width="1366"
     inkscape:window-height="706"
     id="namedview3401"
     showgrid="false"
     inkscape:zoom="4.72"
     inkscape:cx="21.292373"
     inkscape:cy="25"
     inkscape:window-x="-8"
     inkscape:window-y="-8"
     inkscape:window-maximized="1"
     inkscape:current-layer="svg3397" />
  <path
     d="M 25,1 C 11.767,1 1,11.767 1,25 1,38.233 11.767,49 25,49 38.233,49 49,38.233 49,25 49,11.767 38.233,1 25,1 Z m -8,18 c 1.657,0 3,1.343 3,3 0,1.657 -1.343,3 -3,3 -1.657,0 -3,-1.343 -3,-3 0,-1.657 1.343,-3 3,-3 z M 35.707,35.707 C 35.512,35.902 35.256,36 35,36 34.744,36 34.488,35.902 34.293,35.707 34.257,35.672 30.49,32 25,32 c -5.522,0 -9.256,3.67 -9.293,3.707 -0.391,0.391 -1.023,0.391 -1.414,0 -0.391,-0.391 -0.391,-1.023 0,-1.414 C 14.468,34.117 18.659,30 25,30 c 6.341,0 10.532,4.117 10.707,4.293 0.391,0.391 0.391,1.023 0,1.414 z M 33,25 c -1.656,0 -3,-1.343 -3,-3 0,-1.657 1.344,-3 3,-3 1.656,0 3,1.343 3,3 0,1.657 -1.344,3 -3,3 z"
     id="path3399"
     style="fill:#e3dedb"
     inkscape:connector-curvature="0" />
</svg>
