<svg xmlns="http://www.w3.org/2000/svg" width="26" height="26" viewBox="0 0 26 26">
    <path style="text-indent:0;text-align:start;line-height:normal;text-transform:none;block-progression:tb;-inkscape-font-specification:Bitstream Vera Sans" d="M 1.1875 1 A 1.5020331 1.5020331 0 0 0 1.5 4 C 2.6005317 4 3.1008732 4.2632875 3.40625 4.53125 C 3.7116268 4.7992125 3.9191723 5.1825189 4.03125 5.78125 C 4.4040406 7.7787092 5.7186846 14.278725 6.03125 15.8125 C 6.5651246 18.429427 8.973 20 11.5 20 L 19.5 20 C 20.470536 20 20.796969 19.54444 21.125 19.21875 C 21.453031 18.89306 21.738791 18.541942 22.03125 18.125 C 22.616167 17.291116 23.218558 16.244507 23.78125 15.21875 C 24.906634 13.167235 25.84375 11.125 25.84375 11.125 A 1.50015 1.50015 0 1 0 23.15625 9.875 C 23.15625 9.875 22.225116 11.832765 21.15625 13.78125 C 20.621817 14.755493 20.029739 15.708884 19.5625 16.375 C 19.357638 16.66706 19.182021 16.87128 19.0625 17 L 11.5 17 C 10.027 17 9.2288754 16.462573 8.96875 15.1875 C 8.6573154 13.659275 7.3219594 7.1112908 6.96875 5.21875 C 6.7768277 4.1934811 6.3476232 3.0760375 5.40625 2.25 C 4.4648768 1.4239625 3.1084683 1 1.5 1 A 1.50015 1.50015 0 0 0 1.34375 1 A 1.5020331 1.5020331 0 0 0 1.1875 1 z M 15 2.03125 C 14.439 2.03125 13.582 2.23725 13.375 2.53125 C 13.234 2.72925 13.03125 7.03125 13.03125 7.03125 L 10.78125 7.03125 C 10.57525 7.03125 10.4095 7.1315 10.3125 7.3125 C 10.2155 7.4945 10.1985 7.704 10.3125 7.875 C 11.8015 10.09 14.55725 12.76475 14.65625 12.84375 C 14.75625 12.92475 14.877 12.96875 15 12.96875 C 15.123 12.96875 15.24175 12.92475 15.34375 12.84375 C 15.44375 12.76475 18.16825 10.089 19.65625 7.875 C 19.77125 7.703 19.7855 7.4945 19.6875 7.3125 C 19.5925 7.1315 19.42375 7.03125 19.21875 7.03125 L 16.96875 7.03125 C 16.96875 7.03125 16.767 2.73025 16.625 2.53125 C 16.419 2.23725 15.559 2.03125 15 2.03125 z M 10.5 21 C 9.1192881 21 8 22.119288 8 23.5 C 8 24.880712 9.1192881 26 10.5 26 C 11.880712 26 13 24.880712 13 23.5 C 13 22.119288 11.880712 21 10.5 21 z M 19.5 21 C 18.119288 21 17 22.119288 17 23.5 C 17 24.880712 18.119288 26 19.5 26 C 20.880712 26 22 24.880712 22 23.5 C 22 22.119288 20.880712 21 19.5 21 z" color="#000" overflow="visible" enable-background="accumulate" font-family="Bitstream Vera Sans"></path>
</svg>