<svg x="0" y="0" version="1.1" xmlns="http://www.w3.org/2000/svg" xmlns:xlink="http://www.w3.org/1999/xlink" viewBox="0 0 50 50" fill="#eee"> <g > <path d="M15.35898,36.13004c-3.34796,-5.76313 -6.35898,-12.72636 -6.35898,-19.13004c0,-8.822 7.178,-16 16,-16c8.822,0 16,7.178 16,16c0,13.813 -14.627,30.93425 -15.25,31.65625c-0.19,0.22 -0.44,0.32275 -0.75,0.34375c-0.288,0 -0.56,-0.12675 -0.75,-0.34375c-0.25102,-0.28608 -2.77561,-3.18961 -5.70083,-7.47814l4.27363,-4.24267l1.34615,-1.44231l-1.34615,-1.34615l-1.44231,-1.34615l-1.34615,-1.34615l-1.34615,1.34615z M19,18c0,3.313 2.687,6 6,6c3.313,0 6,-2.687 6,-6c0,-3.313 -2.687,-6 -6,-6c-3.313,0 -6,2.687 -6,6z"></path> </g> <g > <path d="M8.25549,48.71429l-7.40385,-7.40385l1.34615,-1.34615l6.05769,6.05769l11.82692,-11.82692l1.34615,1.34615z"></path> </g></svg>